# 3ds Max Wavefront OBJ Exporter v0.97b - (c)2007 guruware
# File Created: 20.01.2017 23:40:26

mtllib Track_basic.mtl

#
# object Line001
#

v  52.1237 -0.0000 -59.3919
v  -10.9810 0.0000 3.4200
v  0.8967 -0.0000 17.9537
v  64.8843 0.0000 -45.7370
v  55.7743 -0.0000 -62.5942
v  67.0335 0.0000 -47.6222
v  60.3332 -0.0000 -65.5130
v  68.7898 0.0000 -48.7467
v  65.7792 -0.0000 -67.5928
v  70.1291 0.0000 -49.2581
v  72.0247 -0.0000 -68.2263
v  71.0935 0.0000 -49.3560
v  78.5381 -0.0000 -66.9079
v  72.1695 0.0000 -49.1381
v  84.6841 -0.0000 -63.6409
v  73.9466 0.0000 -48.1933
v  90.0362 -0.0000 -58.8863
v  76.8062 0.0000 -45.6529
v  94.1270 -0.0000 -54.2838
v  79.7695 0.0000 -42.3188
v  96.9963 -0.0000 -50.6086
v  81.7049 0.0000 -39.8400
v  99.1100 -0.0000 -47.2692
v  82.6330 0.0000 -38.3737
v  100.5450 -0.0000 -44.1057
v  82.9633 0.0000 -37.6456
v  101.3269 -0.0000 -41.3700
v  83.1567 0.0000 -36.9695
v  101.7126 -0.0000 -39.4364
v  83.4425 0.0000 -35.5367
v  102.3447 -0.0000 -36.6582
v  83.6648 0.0000 -34.5597
v  102.3447 -0.0000 16.1458
v  83.6648 0.0000 19.6769
v  103.1768 0.0000 18.2688
v  86.0058 -0.0000 25.6488
v  104.6010 0.0000 21.3082
v  88.2164 -0.0000 30.3665
v  106.0263 0.0000 23.5225
v  91.3491 -0.0000 35.2334
v  107.5061 -0.0000 25.0333
v  95.8124 0.0000 39.7904
v  109.3748 0.0000 26.1647
v  101.7334 -0.0000 43.3753
v  112.3254 -0.0000 27.0492
v  108.8808 0.0000 45.5178
v  116.9598 0.0000 27.4093
v  117.1144 -0.0000 46.1576
v  121.5805 0.0000 26.9734
v  125.3188 -0.0000 45.3838
v  124.4780 0.0000 26.0559
v  132.3990 -0.0000 43.1419
v  126.2505 0.0000 24.9409
v  138.2314 -0.0000 39.4727
v  127.6145 -0.0000 23.4868
v  142.5741 0.0000 34.8427
v  128.9173 -0.0000 21.3400
v  145.5544 0.0000 29.9304
v  130.2070 -0.0000 18.3579
v  147.5985 0.0000 25.2035
v  130.9854 0.0000 16.1711
v  149.6796 -0.0000 19.3565
v  130.6920 -0.0000 -50.2372
v  149.3828 0.0000 -47.8150
v  132.1309 -0.0000 -55.6010
v  150.0305 0.0000 -50.2298
v  133.6415 -0.0000 -60.1441
v  150.9932 0.0000 -53.1249
v  135.9429 -0.0000 -64.9335
v  151.9389 0.0000 -55.0927
v  139.5463 -0.0000 -69.6231
v  152.7432 0.0000 -56.1391
v  144.7574 -0.0000 -73.4509
v  153.4872 0.0000 -56.6854
v  151.2500 -0.0000 -75.6499
v  154.8841 0.0000 -57.1584
v  158.5193 -0.0000 -76.0979
v  157.8255 0.0000 -57.3397
v  165.6005 -0.0000 -75.1322
v  161.0066 0.0000 -56.9058
v  171.7186 -0.0000 -72.8409
v  162.9225 0.0000 -56.1881
v  176.7237 -0.0000 -69.3160
v  164.0943 0.0000 -55.3630
v  180.4066 -0.0000 -65.0585
v  165.1028 0.0000 -54.1974
v  182.9324 -0.0000 -60.6611
v  166.1541 0.0000 -52.3672
v  184.6829 -0.0000 -56.4839
v  167.2382 0.0000 -49.7803
v  186.5320 -0.0000 -51.2041
v  167.8520 0.0000 -48.0276
v  186.5321 -0.0000 30.8825
v  167.8520 0.0000 27.9401
v  183.5874 -0.0000 39.9958
v  165.9858 0.0000 33.7152
v  180.4609 -0.0000 47.9860
v  163.4916 0.0000 40.0897
v  176.1345 -0.0000 55.9434
v  160.5774 0.0000 45.4500
v  170.0162 -0.0000 63.3758
v  157.0258 0.0000 49.7646
v  161.7239 -0.0000 69.5762
v  152.4087 0.0000 53.2169
v  151.2278 -0.0000 73.9303
v  145.9464 0.0000 55.8977
v  138.5256 -0.0000 76.1972
v  136.8310 0.0000 57.5244
v  -99.0981 -0.0000 77.2361
v  -97.6453 0.0000 58.5496
v  -103.0958 -0.0000 76.5928
v  -99.8022 0.0000 58.2025
v  -106.7081 -0.0000 75.8793
v  -102.4967 0.0000 57.6702
v  -110.6812 -0.0000 74.8238
v  -105.1346 0.0000 56.9694
v  -114.9754 -0.0000 73.2913
v  -107.9080 0.0000 55.9795
v  -119.5616 -0.0000 71.1741
v  -110.9981 0.0000 54.5530
v  -124.4469 -0.0000 68.3831
v  -114.5500 0.0000 52.5237
v  -129.7833 -0.0000 64.7576
v  -118.5637 0.0000 49.7968
v  -135.6513 -0.0000 59.9130
v  -123.1806 0.0000 45.9851
v  -141.8936 -0.0000 53.8552
v  -128.5530 0.0000 40.7714
v  -148.4299 -0.0000 46.8529
v  -134.5726 0.0000 34.3227
v  -155.2442 -0.0000 39.0733
v  -141.0674 0.0000 26.9079
v  -162.2783 -0.0000 30.7067
v  -147.9072 0.0000 18.7725
v  -169.4564 -0.0000 21.9554
v  -154.9797 0.0000 10.1500
v  -177.4446 -0.0000 12.1022
v  -161.4302 0.0000 2.1936
v  -180.5644 -0.0000 5.2460
v  -163.3105 0.0000 -1.9381
v  -183.0280 -0.0000 -1.2566
v  -165.1378 0.0000 -6.7613
v  -184.7963 -0.0000 -8.6454
v  -166.2418 0.0000 -11.3739
v  -185.2701 -0.0000 -16.9280
v  -166.5126 0.0000 -16.1063
v  -183.9570 -0.0000 -25.9423
v  -165.7331 0.0000 -21.4585
v  -180.5853 -0.0000 -35.5428
v  -163.4661 0.0000 -27.9138
v  -174.9921 -0.0000 -45.7649
v  -159.1650 0.0000 -35.7747
v  -167.9580 -0.0000 -55.5054
v  -153.5106 0.0000 -43.6046
v  -160.3541 -0.0000 -63.6254
v  -147.6237 0.0000 -49.8912
v  -152.1814 -0.0000 -70.1913
v  -141.5905 0.0000 -54.7383
v  -143.5161 -0.0000 -75.2091
v  -135.4219 0.0000 -58.3103
v  -134.4755 -0.0000 -78.7002
v  -129.0878 0.0000 -60.7563
v  -125.1989 -0.0000 -80.7248
v  -122.5359 0.0000 -62.1863
v  -116.0989 -0.0000 -81.3669
v  -115.4407 0.0000 -62.6869
v  -48.9622 -0.0000 -81.3669
v  -50.7146 0.0000 -62.6869
v  -40.0332 -0.0000 -79.6767
v  -44.1488 0.0000 -61.4440
v  -31.5780 -0.0000 -77.4552
v  -37.6506 0.0000 -59.7367
v  -23.0398 -0.0000 -73.8108
v  -32.3178 0.0000 -57.4605
v  -15.0037 -0.0000 -67.9655
v  -28.1069 0.0000 -54.3976
v  -8.3687 -0.0000 -59.4814
v  -24.6599 0.0000 -49.9900
v  -3.7994 -0.0000 -48.4096
v  -21.8538 0.0000 -43.1907
v  -1.3422 -0.0000 -34.2140
v  -20.1833 0.0000 -33.5400
v  -2.9188 -0.0000 -18.4810
v  -21.1466 0.0000 -23.9271
v  -10.0211 -0.0000 -4.8650
v  -25.0315 0.0000 -16.4793
v  -21.1598 -0.0000 5.1944
v  -31.4088 0.0000 -10.7199
v  -34.9728 -0.0000 11.1943
v  -39.7222 0.0000 -7.1089
v  -50.3281 -0.0000 12.7040
v  -49.1851 0.0000 -6.1785
v  -66.0762 -0.0000 9.2003
v  -59.0284 0.0000 -8.3684
v  -80.2985 -0.0000 0.5957
v  -69.2523 0.0000 -14.5540
v  -90.9526 -0.0000 -8.6721
v  -78.4377 0.0000 -22.5441
v  -98.2260 -0.0000 -15.4764
v  -85.1219 0.0000 -28.7972
v  -103.3117 -0.0000 -20.7367
v  -89.4724 0.0000 -33.2971
v  -106.8061 -0.0000 -24.8394
v  -92.2528 0.0000 -36.5614
v  -109.1963 0.0000 -27.9792
v  -94.3368 -0.0000 -39.2991
v  -111.0069 -0.0000 -30.3544
v  -96.5601 0.0000 -42.2155
v  -112.9010 0.0000 -32.4993
v  -99.6198 -0.0000 -45.6802
v  -115.4161 0.0000 -34.7547
v  -103.9059 -0.0000 -49.5237
v  -117.6420 0.0000 -36.2544
v  -108.6937 -0.0000 -52.7498
v  -119.2806 -0.0000 -36.9494
v  -114.2233 0.0000 -55.0952
v  -120.2448 0.0000 -37.0878
v  -120.5239 -0.0000 -55.9990
v  -120.9587 -0.0000 -36.9638
v  -127.1135 0.0000 -54.8545
v  -122.1681 0.0000 -36.3175
v  -133.1882 -0.0000 -51.6089
v  -124.1626 -0.0000 -34.4279
v  -138.4007 0.0000 -46.6707
v  -125.8475 -0.0000 -32.0069
v  -142.4178 0.0000 -40.8984
v  -126.5583 -0.0000 -30.2125
v  -144.8049 0.0000 -34.8715
v  -126.7415 -0.0000 -28.7298
v  -145.5494 0.0000 -28.8430
v  -126.5514 -0.0000 -27.0217
v  -144.9310 0.0000 -23.2879
v  -125.8891 -0.0000 -24.8008
v  -143.4826 0.0000 -18.4316
v  -124.7122 0.0000 -22.0535
v  -141.6808 -0.0000 -14.2257
v  -123.8503 0.0000 -20.3134
v  -139.1299 -0.0000 -9.0746
v  -93.3913 0.0000 8.7609
v  -105.3678 -0.0000 23.1530
v  -89.0330 -0.0000 11.9113
v  -99.7723 0.0000 27.1977
v  -84.2631 -0.0000 15.1672
v  -94.3806 0.0000 30.8780
v  -79.5030 0.0000 18.0555
v  -88.5632 -0.0000 34.4079
v  -74.6531 0.0000 20.4981
v  -82.2119 -0.0000 37.6066
v  -69.5907 -0.0000 22.4358
v  -75.2415 0.0000 40.2744
v  -64.1579 0.0000 23.8117
v  -67.6020 -0.0000 42.2092
v  -58.3473 0.0000 24.5245
v  -59.0929 -0.0000 43.2531
v  -52.4099 -0.0000 24.2719
v  -49.9515 0.0000 42.8642
v  -46.2479 0.0000 22.8912
v  -40.9157 -0.0000 40.8397
v  -39.6334 0.0000 20.4231
v  -32.2332 -0.0000 37.5998
v  -32.6475 0.0000 16.9927
v  -23.8430 -0.0000 33.4799
v  -25.3767 -0.0000 12.7854
v  -15.6781 0.0000 28.7552
v  -17.8860 0.0000 8.0160
v  -7.6935 -0.0000 23.6714
# 266 vertices

vn 0.0000 1.0000 -0.0000
vn -0.0000 1.0000 -0.0000
vn -0.0000 1.0000 0.0000
vn 0.0000 1.0000 0.0000
# 4 vertex normals

vt 0.6366 0.8078 0.4865
vt 0.4669 0.4118 0.5000
vt 0.4988 0.3202 0.5000
vt 0.6709 0.7217 0.5135
vt 0.6464 0.8280 0.4229
vt 0.6767 0.7336 0.5771
vt 0.6587 0.8464 0.3572
vt 0.6814 0.7407 0.6428
vt 0.6733 0.8595 0.2623
vt 0.6850 0.7439 0.7377
vt 0.6901 0.8635 0.1899
vt 0.6876 0.7446 0.8101
vt 0.7077 0.8552 0.2143
vt 0.6905 0.7432 0.7857
vt 0.7242 0.8346 0.3070
vt 0.6953 0.7372 0.6930
vt 0.7386 0.8046 0.4528
vt 0.7030 0.7212 0.5472
vt 0.7496 0.7756 0.4862
vt 0.7110 0.7002 0.5138
vt 0.7573 0.7524 0.4670
vt 0.7162 0.6846 0.5330
vt 0.7630 0.7314 0.4348
vt 0.7187 0.6753 0.5652
vt 0.7669 0.7114 0.4260
vt 0.7196 0.6707 0.5740
vt 0.7690 0.6942 0.4774
vt 0.7201 0.6665 0.5226
vt 0.7700 0.6820 0.5000
vt 0.7209 0.6574 0.5000
vt 0.7717 0.6645 0.3293
vt 0.7215 0.6513 0.6707
vt 0.7717 0.3316 0.5000
vt 0.7215 0.3093 0.5000
vt 0.7739 0.3182 0.5000
vt 0.7278 0.2716 0.5000
vt 0.7778 0.2990 0.5000
vt 0.7337 0.2419 0.5000
vt 0.7816 0.2850 0.5000
vt 0.7421 0.2112 0.5000
vt 0.7856 0.2755 0.5000
vt 0.7541 0.1825 0.5000
vt 0.7906 0.2684 0.5000
vt 0.7701 0.1599 0.5000
vt 0.7985 0.2628 0.5000
vt 0.7893 0.1464 0.5000
vt 0.8110 0.2605 0.5000
vt 0.8114 0.1423 0.5000
vt 0.8234 0.2633 0.5000
vt 0.8335 0.1472 0.5000
vt 0.8312 0.2691 0.5000
vt 0.8525 0.1613 0.5000
vt 0.8360 0.2761 0.5000
vt 0.8682 0.1845 0.5000
vt 0.8397 0.2853 0.5000
vt 0.8799 0.2137 0.5000
vt 0.8432 0.2988 0.5000
vt 0.8879 0.2446 0.5000
vt 0.8466 0.3176 0.5000
vt 0.8934 0.2744 0.5000
vt 0.8487 0.3314 0.5000
vt 0.8990 0.3113 0.5000
vt 0.8479 0.7501 0.2572
vt 0.8982 0.7348 0.7428
vt 0.8518 0.7839 0.4882
vt 0.9000 0.7501 0.5118
vt 0.8559 0.8126 0.4452
vt 0.9025 0.7683 0.5548
vt 0.8621 0.8428 0.3536
vt 0.9051 0.7807 0.6464
vt 0.8718 0.8723 0.2277
vt 0.9072 0.7873 0.7723
vt 0.8858 0.8965 0.1770
vt 0.9092 0.7908 0.8230
vt 0.9032 0.9103 0.2599
vt 0.9130 0.7937 0.7401
vt 0.9228 0.9132 0.3676
vt 0.9209 0.7949 0.6324
vt 0.9418 0.9071 0.3306
vt 0.9295 0.7922 0.6694
vt 0.9583 0.8926 0.2774
vt 0.9346 0.7876 0.7226
vt 0.9717 0.8704 0.2966
vt 0.9378 0.7824 0.7034
vt 0.9817 0.8436 0.3747
vt 0.9405 0.7751 0.6253
vt 0.9884 0.8158 0.4473
vt 0.9433 0.7635 0.5527
vt 0.9932 0.7895 0.4878
vt 0.9462 0.7472 0.5122
vt 0.9981 0.7562 0.1102
vt 0.9479 0.7362 0.8898
vt 0.9981 0.2386 0.1651
vt 0.9479 0.2572 0.8349
vt 0.9902 0.1812 0.4876
vt 0.9429 0.2208 0.5124
vt 0.9818 0.1308 0.4469
vt 0.9362 0.1806 0.5531
vt 0.9702 0.0806 0.3761
vt 0.9283 0.1468 0.6239
vt 0.9537 0.0338 0.3033
vt 0.9188 0.1196 0.6967
vt 0.9314 -0.0053 0.2885
vt 0.9063 0.0978 0.7115
vt 0.9032 -0.0328 0.3399
vt 0.8890 0.0809 0.6601
vt 0.8690 -0.0471 0.3990
vt 0.8644 0.0707 0.6010
vt 0.2299 -0.0536 0.4086
vt 0.2338 0.0642 0.5914
vt 0.2191 -0.0496 0.4957
vt 0.2280 0.0664 0.5043
vt 0.2094 -0.0451 0.4858
vt 0.2208 0.0697 0.5142
vt 0.1987 -0.0384 0.4765
vt 0.2137 0.0742 0.5235
vt 0.1872 -0.0287 0.4727
vt 0.2062 0.0804 0.5273
vt 0.1749 -0.0154 0.4745
vt 0.1979 0.0894 0.5255
vt 0.1617 0.0022 0.4795
vt 0.1883 0.1022 0.5205
vt 0.1474 0.0251 0.4704
vt 0.1775 0.1194 0.5296
vt 0.1316 0.0556 0.4781
vt 0.1651 0.1434 0.5219
vt 0.1148 0.0938 0.4917
vt 0.1507 0.1763 0.5083
vt 0.0972 0.1379 0.4966
vt 0.1345 0.2170 0.5034
vt 0.0789 0.1870 0.4986
vt 0.1170 0.2637 0.5014
vt 0.0600 0.2398 0.4995
vt 0.0986 0.3150 0.5005
vt 0.0407 0.2949 0.4999
vt 0.0796 0.3694 0.5001
vt 0.0192 0.3571 0.2792
vt 0.0622 0.4195 0.7208
vt 0.0108 0.4003 0.4857
vt 0.0572 0.4456 0.5143
vt 0.0042 0.4413 0.4450
vt 0.0523 0.4760 0.5550
vt -0.0006 0.4879 0.3924
vt 0.0493 0.5051 0.6076
vt -0.0019 0.5401 0.3612
vt 0.0486 0.5349 0.6388
vt 0.0017 0.5969 0.3730
vt 0.0507 0.5687 0.6270
vt 0.0107 0.6575 0.4097
vt 0.0568 0.6094 0.5903
vt 0.0258 0.7219 0.4471
vt 0.0683 0.6589 0.5529
vt 0.0447 0.7833 0.4450
vt 0.0835 0.7083 0.5550
vt 0.0651 0.8345 0.4320
vt 0.0994 0.7479 0.5680
vt 0.0871 0.8759 0.4215
vt 0.1156 0.7785 0.5785
vt 0.1104 0.9076 0.4168
vt 0.1322 0.8010 0.5832
vt 0.1347 0.9296 0.4197
vt 0.1492 0.8164 0.5803
vt 0.1597 0.9423 0.4290
vt 0.1669 0.8254 0.5710
vt 0.1842 0.9464 0.4832
vt 0.1859 0.8286 0.5168
vt 0.3647 0.9464 0.3808
vt 0.3600 0.8286 0.6192
vt 0.3888 0.9357 0.4834
vt 0.3777 0.8208 0.5166
vt 0.4115 0.9217 0.4270
vt 0.3952 0.8100 0.5730
vt 0.4345 0.8987 0.3266
vt 0.4095 0.7957 0.6734
vt 0.4561 0.8619 0.2351
vt 0.4208 0.7763 0.7649
vt 0.4739 0.8084 0.2464
vt 0.4301 0.7485 0.7536
vt 0.4862 0.7386 0.3349
vt 0.4377 0.7057 0.6651
vt 0.4928 0.6491 0.2483
vt 0.4421 0.6448 0.7517
vt 0.4886 0.5499 0.0000
vt 0.4396 0.5842 1.0000
vt 0.4695 0.4640 0.0654
vt 0.4291 0.5373 0.9346
vt 0.4395 0.4006 0.1381
vt 0.4120 0.5009 0.8619
vt 0.4024 0.3628 0.1667
vt 0.3896 0.4782 0.8333
vt 0.3611 0.3533 0.1555
vt 0.3641 0.4723 0.8445
vt 0.3187 0.3754 0.1371
vt 0.3377 0.4861 0.8629
vt 0.2805 0.4296 0.3995
vt 0.3102 0.5251 0.6005
vt 0.2518 0.4880 0.4956
vt 0.2855 0.5755 0.5044
vt 0.2322 0.5309 0.4914
vt 0.2675 0.6149 0.5086
vt 0.2186 0.5641 0.4865
vt 0.2558 0.6433 0.5135
vt 0.2092 0.5900 0.4898
vt 0.2483 0.6639 0.5102
vt 0.2027 0.6098 0.5000
vt 0.2427 0.6811 0.5000
vt 0.1979 0.6247 0.5000
vt 0.2367 0.6995 0.5000
vt 0.1928 0.6383 0.5000
vt 0.2285 0.7214 0.5000
vt 0.1860 0.6525 0.5000
vt 0.2170 0.7456 0.5000
vt 0.1800 0.6619 0.5000
vt 0.2041 0.7659 0.5000
vt 0.1756 0.6663 0.5000
vt 0.1892 0.7807 0.5000
vt 0.1730 0.6672 0.5000
vt 0.1723 0.7864 0.5000
vt 0.1711 0.6664 0.5000
vt 0.1545 0.7792 0.5000
vt 0.1678 0.6623 0.5000
vt 0.1382 0.7588 0.5000
vt 0.1625 0.6504 0.5000
vt 0.1242 0.7276 0.5000
vt 0.1579 0.6352 0.5000
vt 0.1134 0.6912 0.5000
vt 0.1560 0.6239 0.5000
vt 0.1070 0.6532 0.5000
vt 0.1555 0.6145 0.5000
vt 0.1050 0.6152 0.5000
vt 0.1561 0.6037 0.5000
vt 0.1066 0.5802 0.5000
vt 0.1578 0.5897 0.5000
vt 0.1105 0.5496 0.5000
vt 0.1610 0.5724 0.5000
vt 0.1154 0.5231 0.5000
vt 0.1633 0.5614 0.5000
vt 0.1222 0.4906 0.5000
vt 0.2452 0.3781 0.5000
vt 0.2130 0.2874 0.5000
vt 0.2570 0.3583 0.5000
vt 0.2281 0.2619 0.5000
vt 0.2698 0.3377 0.5000
vt 0.2426 0.2387 0.5000
vt 0.2826 0.3195 0.5000
vt 0.2582 0.2164 0.5000
vt 0.2956 0.3041 0.5000
vt 0.2753 0.1962 0.5000
vt 0.3093 0.2919 0.5000
vt 0.2941 0.1794 0.5000
vt 0.3239 0.2832 0.5000
vt 0.3146 0.1672 0.5000
vt 0.3395 0.2787 0.5000
vt 0.3375 0.1606 0.5000
vt 0.3555 0.2803 0.5000
vt 0.3621 0.1631 0.5000
vt 0.3720 0.2890 0.5000
vt 0.3864 0.1759 0.5000
vt 0.3898 0.3046 0.5000
vt 0.4097 0.1963 0.5000
vt 0.4086 0.3262 0.5000
vt 0.4323 0.2223 0.5000
vt 0.4282 0.3527 0.5000
vt 0.4543 0.2521 0.5000
vt 0.4483 0.3828 0.5000
vt 0.4757 0.2841 0.5000
# 266 texture coords

g Line001
usemtl wire_154215229
s 1
f 1/1/1 2/2/1 3/3/2 4/4/3 
f 5/5/1 1/1/1 4/4/3 6/6/3 
f 7/7/1 5/5/1 6/6/3 8/8/2 
f 9/9/1 7/7/1 8/8/2 10/10/2 
f 11/11/1 9/9/1 10/10/2 12/12/2 
f 13/13/1 11/11/1 12/12/2 14/14/1 
f 15/15/1 13/13/1 14/14/1 16/16/4 
f 17/17/1 15/15/1 16/16/4 18/18/4 
f 19/19/1 17/17/1 18/18/4 20/20/1 
f 21/21/4 19/19/1 20/20/1 22/22/2 
f 23/23/4 21/21/4 22/22/2 24/24/1 
f 25/25/1 23/23/4 24/24/1 26/26/4 
f 27/27/1 25/25/1 26/26/4 28/28/4 
f 29/29/4 27/27/1 28/28/4 30/30/1 
f 31/31/4 29/29/4 30/30/1 32/32/1 
f 33/33/4 31/31/4 32/32/1 34/34/4 
f 35/35/1 33/33/4 34/34/4 36/36/4 
f 37/37/2 35/35/1 36/36/4 38/38/3 
f 39/39/4 37/37/2 38/38/3 40/40/3 
f 41/41/3 39/39/4 40/40/3 42/42/2 
f 43/43/4 41/41/3 42/42/2 44/44/3 
f 45/45/3 43/43/4 44/44/3 46/46/2 
f 47/47/3 45/45/3 46/46/2 48/48/4 
f 49/49/4 47/47/3 48/48/4 50/50/4 
f 51/51/4 49/49/4 50/50/4 52/52/4 
f 53/53/1 51/51/4 52/52/4 54/54/3 
f 55/55/1 53/53/1 54/54/3 56/56/3 
f 57/57/3 55/55/1 56/56/3 58/58/2 
f 59/59/3 57/57/3 58/58/2 60/60/1 
f 61/61/1 59/59/3 60/60/1 62/62/2 
f 63/63/3 61/61/1 62/62/2 64/64/2 
f 65/65/3 63/63/3 64/64/2 66/66/1 
f 67/67/1 65/65/3 66/66/1 68/68/3 
f 69/69/2 67/67/1 68/68/3 70/70/3 
f 71/71/2 69/69/2 70/70/3 72/72/3 
f 73/73/2 71/71/2 72/72/3 74/74/2 
f 75/75/2 73/73/2 74/74/2 76/76/1 
f 77/77/2 75/75/2 76/76/1 78/78/1 
f 79/79/1 77/77/2 78/78/1 80/80/2 
f 81/81/1 79/79/1 80/80/2 82/82/1 
f 83/83/1 81/81/1 82/82/1 84/84/4 
f 85/85/1 83/83/1 84/84/4 86/86/4 
f 87/87/1 85/85/1 86/86/4 88/88/4 
f 89/89/4 87/87/1 88/88/4 90/90/1 
f 91/91/4 89/89/4 90/90/1 92/92/1 
f 93/93/1 91/91/4 92/92/1 94/94/4 
f 95/95/1 93/93/1 94/94/4 96/96/3 
f 97/97/4 95/95/1 96/96/3 98/98/1 
f 99/99/4 97/97/4 98/98/1 100/100/4 
f 101/101/4 99/99/4 100/100/4 102/102/4 
f 103/103/4 101/101/4 102/102/4 104/104/4 
f 105/105/4 103/103/4 104/104/4 106/106/3 
f 107/107/4 105/105/4 106/106/3 108/108/3 
f 109/109/4 107/107/4 108/108/3 110/110/3 
f 111/111/4 109/109/4 110/110/3 112/112/2 
f 113/113/3 111/111/4 112/112/2 114/114/4 
f 115/115/3 113/113/3 114/114/4 116/116/4 
f 117/117/3 115/115/3 116/116/4 118/118/3 
f 119/119/3 117/117/3 118/118/3 120/120/3 
f 121/121/3 119/119/3 120/120/3 122/122/3 
f 123/123/3 121/121/3 122/122/3 124/124/3 
f 125/125/3 123/123/3 124/124/3 126/126/3 
f 127/127/3 125/125/3 126/126/3 128/128/2 
f 129/129/3 127/127/3 128/128/2 130/130/2 
f 131/131/3 129/129/3 130/130/2 132/132/2 
f 133/133/3 131/131/3 132/132/2 134/134/2 
f 135/135/2 133/133/3 134/134/2 136/136/3 
f 137/137/3 135/135/2 136/136/3 138/138/3 
f 139/139/3 137/137/3 138/138/3 140/140/2 
f 141/141/2 139/139/3 140/140/2 142/142/3 
f 143/143/2 141/141/2 142/142/3 144/144/3 
f 145/145/2 143/143/2 144/144/3 146/146/3 
f 147/147/2 145/145/2 146/146/3 148/148/2 
f 149/149/2 147/147/2 148/148/2 150/150/2 
f 151/151/2 149/149/2 150/150/2 152/152/2 
f 153/153/2 151/151/2 152/152/2 154/154/2 
f 155/155/2 153/153/2 154/154/2 156/156/2 
f 157/157/2 155/155/2 156/156/2 158/158/2 
f 159/159/2 157/157/2 158/158/2 160/160/2 
f 161/161/2 159/159/2 160/160/2 162/162/2 
f 163/163/2 161/161/2 162/162/2 164/164/1 
f 165/165/2 163/163/2 164/164/1 166/166/1 
f 167/167/2 165/165/2 166/166/1 168/168/1 
f 169/169/1 167/167/2 168/168/1 170/170/1 
f 171/171/1 169/169/1 170/170/1 172/172/2 
f 173/173/1 171/171/1 172/172/2 174/174/1 
f 175/175/1 173/173/1 174/174/1 176/176/1 
f 177/177/1 175/175/1 176/176/1 178/178/1 
f 179/179/1 177/177/1 178/178/1 180/180/1 
f 181/181/4 179/179/1 180/180/1 182/182/1 
f 183/183/4 181/181/4 182/182/1 184/184/4 
f 185/185/4 183/183/4 184/184/4 186/186/4 
f 187/187/4 185/185/4 186/186/4 188/188/4 
f 189/189/4 187/187/4 188/188/4 190/190/4 
f 191/191/3 189/189/4 190/190/4 192/192/3 
f 193/193/3 191/191/3 192/192/3 194/194/3 
f 195/195/3 193/193/3 194/194/3 196/196/2 
f 197/197/3 195/195/3 196/196/2 198/198/2 
f 199/199/3 197/197/3 198/198/2 200/200/3 
f 201/201/3 199/199/3 200/200/3 202/202/3 
f 203/203/3 201/201/3 202/202/3 204/204/2 
f 205/205/4 203/203/3 204/204/2 206/206/2 
f 207/207/4 205/205/4 206/206/2 208/208/2 
f 209/209/4 207/207/4 208/208/2 210/210/2 
f 211/211/1 209/209/4 210/210/2 212/212/1 
f 213/213/2 211/211/1 212/212/1 214/214/4 
f 215/215/4 213/213/2 214/214/4 216/216/4 
f 217/217/4 215/215/4 216/216/4 218/218/3 
f 219/219/1 217/217/4 218/218/3 220/220/2 
f 221/221/4 219/219/1 220/220/2 222/222/2 
f 223/223/3 221/221/4 222/222/2 224/224/1 
f 225/225/1 223/223/3 224/224/1 226/226/4 
f 227/227/1 225/225/1 226/226/4 228/228/4 
f 229/229/4 227/227/1 228/228/4 230/230/1 
f 231/231/1 229/229/4 230/230/1 232/232/1 
f 233/233/1 231/231/1 232/232/1 234/234/4 
f 235/235/2 233/233/1 234/234/4 236/236/3 
f 237/237/2 235/235/2 236/236/3 238/238/3 
f 239/239/3 237/237/2 238/238/3 240/240/2 
f 241/241/4 239/239/3 240/240/2 242/242/2 
f 243/243/2 241/241/4 242/242/2 244/244/4 
f 245/245/2 243/243/2 244/244/4 246/246/4 
f 247/247/4 245/245/2 246/246/4 248/248/3 
f 249/249/4 247/247/4 248/248/3 250/250/2 
f 251/251/3 249/249/4 250/250/2 252/252/4 
f 253/253/4 251/251/3 252/252/4 254/254/3 
f 255/255/2 253/253/4 254/254/3 256/256/2 
f 257/257/3 255/255/2 256/256/2 258/258/4 
f 259/259/4 257/257/3 258/258/4 260/260/3 
f 261/261/4 259/259/4 260/260/3 262/262/3 
f 263/263/2 261/261/4 262/262/3 264/264/2 
f 265/265/3 263/263/2 264/264/2 266/266/4 
f 2/2/1 265/265/3 266/266/4 3/3/2 
# 133 polygons

